HIERARCHY
ROOT Hips
{
  OFFSET 13.6774 106.653 -34.4427
  CHANNELS 6 Xposition Yposition Zposition Zrotation Xrotation Yrotation
  JOINT ToSpine
  {
    OFFSET -2.69724 7.43032 -0.144315
    CHANNELS 3 Zrotation Xrotation Yrotation
    JOINT Spine
    {
      OFFSET -0.0310711 10.7595 1.96963
      CHANNELS 3 Zrotation Xrotation Yrotation
      JOINT Spine1
      {
        OFFSET 19.9056 3.91189 0.764692
        CHANNELS 3 Zrotation Xrotation Yrotation
        JOINT Neck
        {
          OFFSET 25.9749 7.03908 -0.130764
          CHANNELS 3 Zrotation Xrotation Yrotation
          JOINT Head
          {
            OFFSET 9.52751 0.295786 -0.907742
            CHANNELS 3 Zrotation Xrotation Yrotation
            End Site
            {
              OFFSET 16.4037 0.713936 2.7358
            }
          }
        }
        JOINT LeftShoulder
        {
          OFFSET 17.7449 4.33886 11.7777
          CHANNELS 3 Zrotation Xrotation Yrotation
          JOINT LeftArm
          {
            OFFSET 0.911315 1.27913 9.80584
            CHANNELS 3 Zrotation Xrotation Yrotation
            JOINT LeftForeArm
            {
              OFFSET 28.6126 1.18197 -3.53199
              CHANNELS 3 Zrotation Xrotation Yrotation
              JOINT LeftHand
              {
                OFFSET 27.5088 0.0218783 0.327423
                CHANNELS 3 Zrotation Xrotation Yrotation
                End Site
                {
                  OFFSET 18.6038 -0.000155887 0.382096
                }
              }
            }
          }
        }
        JOINT RightShoulder
        {
          OFFSET 17.1009 2.89543 -12.2328
          CHANNELS 3 Zrotation Xrotation Yrotation
          JOINT RightArm
          {
            OFFSET 1.4228 0.178766 -10.211
            CHANNELS 3 Zrotation Xrotation Yrotation
            JOINT RightForeArm
            {
              OFFSET 28.733 1.87905 2.64907
              CHANNELS 3 Zrotation Xrotation Yrotation
              JOINT RightHand
              {
                OFFSET 27.4588 0.290562 -0.101845
                CHANNELS 3 Zrotation Xrotation Yrotation
                End Site
                {
                  OFFSET 17.8396 -0.255518 -0.000602873
                }
              }
            }
          }
        }
      }
    }
  }
  JOINT LeftUpLeg
  {
    OFFSET -5.61296 -2.22332 -10.2353
    CHANNELS 3 Zrotation Xrotation Yrotation
    JOINT LeftLeg
    {
      OFFSET 2.56703 -44.7417 -7.93097
      CHANNELS 3 Zrotation Xrotation Yrotation
      JOINT LeftFoot
      {
        OFFSET 3.16933 -46.5642 -3.96578
        CHANNELS 3 Zrotation Xrotation Yrotation
        JOINT LeftToeBase
        {
          OFFSET 0.346054 -6.02161 12.8035
          CHANNELS 3 Zrotation Xrotation Yrotation
          End Site
          {
            OFFSET 0.134235 -1.35082 5.13018
          }
        }
      }
    }
  }
  JOINT RightUpLeg
  {
    OFFSET -5.7928 -1.72406 10.6446
    CHANNELS 3 Zrotation Xrotation Yrotation
    JOINT RightLeg
    {
      OFFSET -2.57161 -44.7178 -7.85259
      CHANNELS 3 Zrotation Xrotation Yrotation
      JOINT RightFoot
      {
        OFFSET -3.10148 -46.5936 -4.03391
        CHANNELS 3 Zrotation Xrotation Yrotation
        JOINT RightToeBase
        {
          OFFSET -0.0828122 -6.13587 12.8035
          CHANNELS 3 Zrotation Xrotation Yrotation
          End Site
          {
            OFFSET -0.131328 -1.35082 5.13018
          }
        }
      }
    }
  }
}
MOTION
Frames: 15
Frame Time: 0.03333333333333333
0.0000 93.1000 0.0000 -99.4582 -11.6181 141.2282 -71.2829 -0.1795 87.8587 170.1329 50.1440 -85.3511 4.2968 37.9524 -21.9636 -130.7170 17.0326 -153.2164 -148.4142 50.2227 -158.3823 -0.1225 -14.9919 -20.0117 -111.2768 26.8188 -87.8950 -1.1653 -0.9480 -57.2382 -0.0695 -0.0534 -0.1060 0.3260 15.9145 0.0007 -116.5315 -21.8726 110.1409 3.1184 -59.4251 6.7163 3.6689 -0.5818 -0.9620 16.7221 -0.0237 81.4988 0.6041 20.7630 -19.5739 -12.3164 -5.9071 -0.1066 -4.5841 7.2712 -0.5664 -62.5180 -40.2542 55.6345 -1.7875 43.4479 -21.1504 -25.2865 -19.3266 0.4313 0.9064 -24.6214 -36.3147 
0.0000 93.1000 0.0000 -104.2173 -21.8689 137.9661 -71.2560 -0.1703 87.8574 158.0927 53.0105 -83.6163 4.5901 34.0866 -20.5944 -128.6395 16.8909 -153.5712 -146.6537 50.6217 -156.1875 0.1023 -14.8183 -14.1554 -117.1476 21.6889 -97.9355 -4.9367 -2.7354 -55.0988 0.0948 -0.1490 -0.0750 -0.0709 15.9872 4.3531 -107.6679 -17.5759 105.6076 -3.2748 -64.2368 2.5355 3.1444 -0.6815 -1.3400 19.4756 10.7144 76.3672 3.6233 19.1181 -19.2515 -12.0473 -7.3980 -0.3220 -6.8319 9.4170 3.3767 -65.8250 -34.6052 63.0209 -1.3146 41.3244 -17.3223 -26.2167 -12.1536 1.0535 0.0325 -27.2936 -23.9707 
0.0000 93.1000 0.0000 -107.7695 -31.2920 136.3635 -71.1747 -0.1258 87.8286 147.0985 57.4346 -81.4270 4.1318 29.8155 -17.0865 -126.6517 15.9612 -153.9144 -147.1983 49.8224 -149.9476 0.3446 -12.8143 -6.9373 -125.0843 16.3988 -106.1331 -2.4571 -0.6896 -52.3823 -0.0135 -0.0053 -0.1245 -0.6909 15.1751 10.4504 -96.9870 -15.9238 98.5105 -1.2598 -62.9443 7.7080 2.5270 -0.6192 -0.9382 21.5896 22.9902 67.8232 5.4559 19.4955 -14.6147 -14.2555 -14.6751 -0.7372 -12.6675 18.4638 10.6265 -66.8389 -28.1280 75.2571 -0.3604 40.1442 -5.5758 -24.7425 -6.7754 1.7464 -0.4252 -33.0896 -26.7194 
0.0000 93.1000 0.0000 -108.3585 -42.7026 135.7193 -71.0660 0.0049 87.8191 130.0320 62.5309 -69.9930 3.6707 24.1964 -13.6732 -123.1484 15.3251 -154.0748 -145.1883 47.9106 -148.1929 0.2402 -10.7373 -2.7578 -133.9538 14.6349 -113.3425 3.8098 3.1198 -53.4861 -0.0234 0.5957 -0.3184 -1.5583 13.2050 21.3503 -75.2473 -12.7699 90.6299 9.0325 -51.5601 22.8655 1.1058 -0.0675 -1.2903 25.4333 32.5694 61.3265 4.7747 19.2538 -21.6351 -15.1697 -18.3440 -1.6712 -7.6157 5.4997 19.5653 -65.9853 -21.5438 82.5557 0.3095 37.0145 0.1400 -23.3817 -3.3721 2.2899 -1.0889 -37.7706 -29.8744 
0.0000 93.1000 0.0000 -112.6964 -57.3405 132.8755 -70.9998 -0.0603 87.8474 107.1857 64.5403 -49.7684 3.5054 17.5615 -11.0509 -118.6130 13.8568 -155.7581 -144.6482 45.8269 -147.3479 1.1948 -8.3951 0.3156 -136.5713 17.2257 -119.1118 6.6405 4.9579 -55.9881 -0.5632 0.0626 0.3683 -2.1941 10.7236 33.4188 -55.5429 -10.0988 81.6232 9.2653 -38.2945 26.1099 0.6801 -0.3631 -0.3411 27.0631 34.8993 59.9207 4.8334 18.3153 -18.3317 -9.9407 -6.6798 -1.1371 1.5750 -5.3612 -12.0361 -65.9000 -18.3438 82.5343 1.6684 33.2274 5.8126 -19.8821 -0.0517 1.5110 -1.6783 -38.5784 -30.8477 
0.0000 93.1000 0.0000 -113.1682 -68.7513 134.1784 -70.9699 0.0598 87.7548 88.4190 64.8144 -31.1282 3.5357 14.3598 -9.9060 -114.8349 13.2244 -157.2928 -145.2957 45.1467 -146.2840 0.6952 -5.3562 3.0168 -132.9098 25.2242 -124.3071 4.3454 2.2324 -56.5111 0.2954 0.7174 -0.5112 -2.3657 9.3919 37.0159 -74.5320 -13.1578 68.5609 7.0213 -61.3695 22.1663 0.6947 0.2602 0.4642 29.7231 36.6933 47.0307 -0.5529 32.5062 13.6264 -10.9502 -14.8880 -2.1560 -9.0126 14.0405 6.2698 -63.1442 -14.1989 88.2539 2.4252 31.2920 11.1139 -19.0064 0.8722 2.5799 -2.0780 -41.6733 -33.1813 
0.0000 93.1000 0.0000 -114.5586 -72.3394 133.5875 -70.9556 -0.0484 87.7129 82.2426 65.7567 -24.0999 4.6926 14.2954 -10.8510 -115.7695 12.2541 -159.5752 -151.1459 44.8602 -145.0697 1.3376 -4.0576 1.4563 -124.1233 34.4447 -137.2611 2.3108 1.2199 -57.9627 0.2415 0.1251 -0.1912 -2.7162 9.0151 42.7199 -76.7835 -13.8423 57.8461 5.4763 -70.2399 19.3564 1.1164 -0.2805 1.4866 28.4945 44.2372 47.8343 -1.8878 50.7977 2.6968 -12.9673 -16.0053 -1.4411 -9.4889 11.5013 12.8046 -61.6316 -10.7795 93.1195 0.9177 33.2591 9.9221 -18.2516 0.4033 2.3596 -1.3995 -41.9808 -27.9409 
0.0000 93.1000 0.0000 -125.1442 -78.3248 128.2650 -70.9463 -0.0757 87.6768 83.1538 65.8987 -21.8538 5.5532 14.3634 -8.3429 -117.7495 13.0416 -162.6722 -155.4048 46.5498 -146.6745 1.0311 -6.5796 -3.0948 -113.5890 44.6065 -142.9821 5.7968 3.2809 -64.4437 -0.0134 -0.1117 0.2624 -2.8811 7.8573 45.5754 -74.5605 -21.9602 54.3584 12.0017 -70.0763 25.7838 1.1887 -0.2962 2.2587 21.4975 46.3389 51.3990 -8.6140 66.9108 -3.5592 -12.9940 -11.5029 -0.9973 -3.6709 2.5771 4.4285 -60.6321 -9.3176 89.9305 1.0495 33.4842 7.9481 -18.8507 -1.7837 2.1674 -0.0741 -37.0817 -23.7487 
0.0000 93.1000 0.0000 -173.5350 -85.3680 79.9478 -70.9712 -0.0194 87.6658 80.2147 65.6490 -14.8358 6.5362 13.0178 -4.8553 -115.7547 15.2498 -166.5866 -158.7199 49.3997 -147.0815 -0.0921 -11.8785 -8.8534 -99.8386 50.8677 -148.1271 12.0853 3.5063 -73.6118 0.0722 0.0774 0.3316 -3.2337 6.7091 49.9507 -71.2498 -30.6732 55.4413 9.3273 -61.8498 24.8341 0.9878 0.0501 1.5985 8.5799 43.0080 59.8224 -15.5163 75.2980 -1.3712 -16.2650 -3.8602 -0.4006 -0.4434 -3.4989 3.2552 -57.7784 -7.0572 87.3403 0.1369 34.0601 2.0751 -20.6280 -3.9719 3.0265 1.1695 -33.7009 -14.3048 
0.0000 93.1000 0.0000 95.5898 -80.3669 -5.7112 -70.8004 -0.1953 87.7767 72.2212 64.5511 -5.2647 8.0513 12.5324 -1.8793 -119.7730 17.8586 -168.1616 -166.8869 51.8792 -141.8667 0.9296 -16.0518 -11.6354 -76.5991 53.5420 -160.0129 15.9795 3.0856 -78.2707 -0.4734 -0.5623 -0.2918 -2.9421 5.6159 52.7853 -75.4422 -33.8775 60.1762 8.3218 -54.3075 23.5106 0.9875 -0.7460 2.6225 -6.5564 35.0277 70.6337 -19.9445 77.5038 6.8670 -18.6846 4.3866 3.2551 -2.5344 1.9408 2.5489 -52.9274 -5.1452 88.3990 -0.5302 35.2359 10.5153 -17.9768 -5.6094 1.6191 0.0338 -33.2662 -27.4625 
0.0000 93.1000 0.0000 84.4643 -74.0447 -16.1104 -70.8058 -0.1657 87.8276 69.3697 64.1996 1.1425 10.2743 12.5804 0.0384 -122.8139 20.2967 -169.4088 -173.0481 54.2111 -140.6641 0.2868 -20.0467 -16.2552 -62.0078 50.9079 -162.8910 19.7106 2.4478 -83.7526 -0.4113 -0.3248 0.1219 -2.7972 4.7650 51.7049 -74.9297 -33.9400 70.6202 9.9403 -46.9534 24.3835 1.0929 -0.6237 2.1390 -21.3823 27.9497 78.7095 -12.9380 74.9413 9.7589 -20.6930 9.3624 3.9051 -4.6820 8.0959 0.8863 -48.8541 -4.3973 89.9430 -1.0052 35.6212 18.3022 -14.8513 -4.1397 1.4791 -0.1180 -35.8328 -22.2442 
0.0000 93.1000 0.0000 80.4432 -68.0176 -15.9942 -70.8514 -0.0943 87.8541 72.9670 63.1970 3.5071 10.3203 12.8155 1.0610 -125.7606 22.7431 -171.3507 -178.4455 56.6198 -139.2721 -0.2421 -21.8784 -17.3134 -50.2476 46.6078 -162.9715 24.5909 2.0654 -84.7456 0.2707 0.0131 0.5367 -2.4712 5.1019 48.2536 -72.6471 -33.1593 83.0995 12.1704 -36.5788 25.5716 0.5848 -0.3341 1.2866 -36.8866 21.1509 83.5971 -6.5311 69.1293 8.4119 -15.1063 6.4998 2.3965 -4.9967 7.2727 -1.5810 -47.6080 -4.1963 88.6950 -3.3647 33.7423 29.3933 -13.9778 2.3333 1.2493 1.7442 -35.0153 -16.9632 
0.0000 93.1000 0.0000 76.3340 -62.1412 -16.3584 -70.9239 -0.1769 87.9437 70.4082 62.3426 10.1892 11.0570 12.5412 3.0959 -128.7658 24.6828 -172.6214 -179.1566 59.7875 -138.3324 0.1541 -22.3274 -16.7822 -42.4577 37.8414 -165.5357 26.3026 3.3689 -81.5532 -0.3412 -0.5331 0.6604 -2.2892 5.0037 46.8231 -73.0372 -28.9517 89.7302 14.9177 -25.5722 32.7442 0.9389 -0.9569 0.6844 -46.6218 14.6517 84.6483 -3.5715 62.3969 9.8794 -8.8071 1.8485 1.3399 -7.2991 13.5319 1.1058 -45.1024 -5.4144 86.7219 -2.8633 34.2688 30.0710 -13.9202 6.2978 0.9481 1.9285 -22.4154 -5.3631 
0.0000 93.1000 0.0000 70.2823 -53.2553 -17.4893 -70.9826 -0.0971 88.0144 63.2946 62.3812 18.2728 10.1525 11.6725 7.3854 -127.4882 25.3669 -181.8875 -168.9350 63.6320 -151.5923 -0.4161 -23.1525 -14.6666 -39.8419 28.8156 -166.3202 26.9476 4.2173 -80.4032 0.0235 -0.2556 -0.0898 -2.2038 4.7089 47.5813 -85.5449 -20.5005 86.6878 14.7630 -19.1313 39.5124 0.5657 -0.5788 0.0270 -50.7846 12.1893 81.4531 -1.3981 56.0458 12.6805 -5.4085 -3.8960 -0.2274 -7.2600 12.0678 4.3705 -40.4504 -4.3683 91.6296 -1.4477 35.4246 14.5912 -15.1065 7.3335 1.7883 1.2693 -20.3040 4.0486 
0.0000 93.1000 0.0000 69.4713 -43.5766 -13.5065 -70.9118 -0.2901 87.9944 66.1918 62.9301 13.9215 5.6188 10.6590 12.5339 -129.4144 27.0919 170.4925 -161.0011 67.3332 -162.6906 0.8449 -22.3550 -14.9934 -40.8152 18.2904 -164.3623 27.4826 3.0730 -82.1433 -0.0790 -1.2866 1.4199 -1.8804 4.2882 48.1480 -91.2490 -11.7806 88.7846 9.2164 -10.7183 41.6232 1.1112 -1.8275 0.2604 -54.4417 9.2828 78.8344 -0.8377 48.9799 16.3984 -6.3257 -10.2553 -0.0694 1.8419 -7.9751 -2.1804 -36.5815 -1.6470 103.4633 0.6553 37.3729 1.3740 -16.2424 6.2464 1.8200 2.7863 -24.3458 1.3831 
